<?xml version="1.0" encoding="UTF-8" standalone="no"?><!DOCTYPE svg PUBLIC "-//W3C//DTD SVG 1.1//EN" "http://www.w3.org/Graphics/SVG/1.1/DTD/svg11.dtd"><svg width="100%" height="100%" viewBox="0 0 4249 2550" version="1.1" xmlns="http://www.w3.org/2000/svg" xmlns:xlink="http://www.w3.org/1999/xlink" xml:space="preserve" xmlns:serif="http://www.serif.com/" style="fill-rule:evenodd;clip-rule:evenodd;stroke-linejoin:round;stroke-miterlimit:2;"><rect id="Página-3" serif:id="Página 3" x="0" y="0" width="4248.208" height="2550" style="fill:none;"/><g id="Capa-1" serif:id="Capa 1"><path d="M1266.097,1540.036l-26.871,-60.117c-4.975,-11.121 -17.812,-16.367 -29.15,-11.908l-158.592,62.388c-4.575,1.8 -9.058,-2.8 -7.146,-7.325l202.2,-478.263c4.85,-11.475 -0.412,-24.721 -11.821,-29.737l-59.663,-26.233c-11.513,-5.062 -24.954,0.163 -30.025,11.675l-282.258,640.742c-5.058,11.487 0.125,24.904 11.592,30.008l67.896,30.208c5.908,2.629 12.658,2.625 18.562,-0.013l293.771,-131.321c11.487,-5.133 16.642,-18.612 11.504,-30.104" style="fill:#6500ad;fill-rule:nonzero;"/><path d="M1552.754,1642.423l-191.629,-422.883c-2.358,-5.208 -6.592,-9.342 -11.858,-11.575l-72.5,-30.754c-11.587,-4.913 -24.962,0.496 -29.879,12.079l-66.329,156.333c-4.917,11.588 0.492,24.963 12.075,29.879l59.688,25.325c11.583,4.917 24.963,-0.492 29.879,-12.079l10.983,-25.888c2.158,-5.079 9.325,-5.167 11.604,-0.142l147.396,325.275c5.192,11.463 18.696,16.546 30.163,11.35l59.054,-26.758c11.467,-5.192 16.55,-18.7 11.354,-30.163" style="fill:#6500ad;fill-rule:nonzero;"/><path d="M1830.562,1400.246c21.071,-10.537 35.621,-24.575 43.654,-42.154c8.025,-17.558 12.537,-41.396 13.546,-71.504l-100.854,20.325c-27.104,5.025 -46.675,13.058 -58.712,24.083c-9.033,9.038 -13.546,20.083 -13.546,33.121c0,15.558 5.646,27.471 16.933,35.75c11.283,8.279 26.208,12.425 44.779,12.425c20.071,0 38.129,-4.013 54.2,-12.046m-179.138,59.092c-25.596,-21.829 -38.4,-52.312 -38.4,-91.454c0,-42.154 16.062,-74.263 48.179,-96.346c23.071,-16.058 55.946,-28.092 98.6,-36.129l125.704,-23.338c-1.013,-26.083 -7.792,-45.908 -20.325,-59.458c-12.55,-13.546 -31.362,-20.325 -56.45,-20.325c-19.571,0 -36.763,5.779 -51.562,17.312c-14.804,11.55 -23.963,27.096 -27.475,46.667l-100.854,0c7.012,-46.667 27.583,-82.283 61.712,-106.883c34.121,-24.579 73.771,-36.879 118.925,-36.879c25.596,0 49.425,3.642 71.517,10.912c22.071,7.279 40.888,17.946 56.446,31.992c15.55,13.546 26.842,29.354 33.875,47.412c7.021,18.071 11.404,36.133 13.167,54.204c1.758,18.058 2.638,40.396 2.638,66.979l0,219.792l-101.612,0l0,-57.2c-10.538,18.571 -23.338,32.617 -38.388,42.142c-23.592,15.55 -55.454,23.338 -95.596,23.338c-41.154,0 -74.517,-10.913 -100.1,-32.738" style="fill:#6500ad;fill-rule:nonzero;"/><path d="M2194.476,1177.452c-20.325,24.592 -30.483,56.446 -30.483,95.588c0,39.142 10.158,71.017 30.483,95.6c20.325,24.583 46.533,36.875 78.662,36.875c32.108,0 57.954,-12.417 77.525,-37.254c19.571,-24.838 29.354,-56.567 29.354,-95.221c0,-38.629 -9.783,-70.371 -29.354,-95.208c-19.571,-24.842 -45.417,-37.267 -77.525,-37.267c-32.129,0 -58.338,12.304 -78.662,36.888m199.088,-96.35c28.096,18.571 49.925,44.537 65.483,77.904c15.546,33.383 23.338,71.392 23.338,114.033c0,42.654 -7.792,80.675 -23.338,114.037c-15.558,33.371 -37.387,59.346 -65.483,77.904c-28.104,18.571 -60.479,27.85 -97.1,27.85c-26.092,0 -48.542,-4.646 -67.358,-13.925c-18.825,-9.279 -36.262,-25.463 -52.321,-48.554l0,205.492l-101.613,0l0,-574.312l101.613,0l0,53.45c16.558,-23.083 34.117,-39.146 52.688,-48.179c18.562,-9.033 40.9,-13.55 66.992,-13.55c36.621,0 68.996,9.292 97.1,27.85" style="fill:#6500ad;fill-rule:nonzero;"/><path d="M2861.743,1217.339c-2.012,-16.05 -7.279,-29.096 -15.804,-39.142c-9.546,-14.55 -22.092,-25.708 -37.642,-33.487c-15.558,-7.779 -32.871,-11.667 -51.933,-11.667c-19.079,0 -36.263,3.754 -51.554,11.292c-15.317,7.525 -27.738,18.812 -37.262,33.862c-9.038,11.046 -14.558,24.092 -16.562,39.142l210.758,0Zm-218.279,246.888c-32.629,-18.558 -57.846,-44.279 -75.65,-77.15c-17.817,-32.863 -26.717,-70.117 -26.717,-111.779c0,-38.633 7.9,-74.896 23.704,-108.758c15.804,-33.875 39.629,-61.346 71.504,-82.425c31.863,-21.075 70.871,-31.613 117.046,-31.613c38.133,0 73.263,7.904 105.379,23.713c32.108,15.804 57.958,40.146 77.529,73.008c19.571,32.875 29.35,73.65 29.35,122.317l0,21.829l-319.138,0c1.504,17.567 6.771,34.129 15.804,49.675c10.037,19.571 23.45,34.754 40.267,45.533c16.812,10.8 36.008,16.192 57.587,16.192c23.075,0 42.9,-5.9 59.458,-17.692c16.558,-11.783 28.342,-26.975 35.375,-45.542l103.879,0c-13.55,44.675 -37.396,80.917 -71.504,108.767c-34.142,27.85 -77.796,41.775 -130.975,41.775c-42.654,0 -80.296,-9.279 -112.9,-27.85" style="fill:#6500ad;fill-rule:nonzero;"/><path d="M3101.107,1483.797l-115.925,0l144.521,-213.013l-145.267,-209.254l116.671,0l91.821,141.504l94.088,-141.504l118.179,0l-148.287,209.254l147.533,213.013l-117.425,0l-93.333,-143.767l-92.575,143.767Z" style="fill:#6500ad;fill-rule:nonzero;"/><path d="M2311.32,1610.116c2.192,0 4.204,-0.179 6.042,-0.533c1.833,-0.354 3.413,-1.133 4.729,-2.342c1.808,-1.646 2.712,-4.004 2.712,-7.071c0,-3.892 -1.179,-6.412 -3.537,-7.567c-2.354,-1.15 -5.179,-1.725 -8.467,-1.725l-15.862,0l0,19.237l14.383,0Zm-0.246,-27.375c3.342,0 5.933,-0.783 7.771,-2.342c1.833,-1.562 2.75,-3.796 2.75,-6.7c0,-2.633 -0.792,-4.688 -2.379,-6.171c-1.979,-1.804 -5.263,-2.708 -9.867,-2.708l-12.412,0l0,17.921l14.137,0Zm-23.838,36.092l0,-62.729l24.25,0c7.233,0 12.521,1.617 15.863,4.854c2.688,2.629 4.033,6.246 4.033,10.85c0,3.729 -0.892,6.879 -2.675,9.454c-1.783,2.575 -4.233,4.142 -7.358,4.683c4.221,0.442 7.467,1.975 9.742,4.604c2.275,2.633 3.412,6.083 3.412,10.362c0,2.737 -0.45,5.175 -1.354,7.312c-0.908,2.142 -2.154,3.921 -3.742,5.346c-2.192,1.975 -4.838,3.342 -7.938,4.108c-3.096,0.771 -6.096,1.154 -9,1.154l-25.233,0Z" style="fill-rule:nonzero;"/><path d="M2344.04,1635.767l0,-7.892l4.688,0c1.808,0 3.137,-0.25 3.988,-0.738c0.846,-0.496 1.629,-1.675 2.342,-3.537l1.812,-5.013l-17.35,-45.55l9.863,0l12.254,34.612l11.262,-34.612l9.779,0l-19.071,53.029c-1.317,3.671 -2.875,6.208 -4.688,7.604c-1.808,1.396 -4.354,2.096 -7.646,2.096l-7.233,0Z" style="fill-rule:nonzero;"/><path d="M2422.303,1618.831l-9.7,0l0,-62.729l16.604,0l14.879,50.892l14.963,-50.892l16.608,0l0,62.729l-9.704,0l0,-56.071l-17.017,56.071l-9.537,0l-17.096,-55.654l0,55.654Z" style="fill-rule:nonzero;"/><path d="M2521.033,1590.469c-0.217,-1.7 -0.683,-3.154 -1.396,-4.358c-1.096,-2.083 -2.671,-3.683 -4.729,-4.808c-2.05,-1.125 -4.312,-1.683 -6.779,-1.683c-2.579,0 -4.85,0.558 -6.825,1.683c-1.975,1.125 -3.533,2.725 -4.688,4.808c-0.654,1.096 -1.175,2.546 -1.558,4.358l25.975,0Zm-24.825,26.188c-3.454,-2.058 -6.138,-4.879 -8.054,-8.471c-1.925,-3.592 -2.879,-7.604 -2.879,-12.042c0,-4.167 0.862,-8.087 2.588,-11.758c1.725,-3.671 4.292,-6.633 7.692,-8.879c3.392,-2.246 7.479,-3.371 12.246,-3.371c4.054,0 7.796,0.875 11.221,2.629c3.425,1.758 6.179,4.375 8.262,7.854c2.083,3.479 3.125,7.712 3.125,12.7l0,2.467l-35.925,0c0.163,1.808 0.6,3.454 1.312,4.929c1.1,2.8 2.742,5.021 4.933,6.662c2.192,1.646 4.683,2.467 7.479,2.467c2.904,0 5.4,-0.75 7.483,-2.263c2.079,-1.504 3.588,-3.438 4.521,-5.796l9.454,0c-1.533,4.717 -4.125,8.55 -7.767,11.508c-3.646,2.963 -8.263,4.442 -13.854,4.442c-4.438,0 -8.387,-1.029 -11.837,-3.079" style="fill-rule:nonzero;"/><path d="M2552.933,1618.831c-3.562,0 -6.25,-0.821 -8.058,-2.467c-1.808,-1.646 -2.713,-4.413 -2.713,-8.304l0,-27.458l-7.071,0l0,-7.562l7.071,0l0,-16.938l9.042,0l0,16.938l9.537,0l0,7.562l-9.537,0l0,25.075c0,1.921 0.275,3.317 0.825,4.192c0.542,0.879 1.804,1.317 3.779,1.317l4.85,0l0,7.646l-7.725,0Z" style="fill-rule:nonzero;"/><path d="M2590.501,1610.776c2.683,-1.371 4.562,-3.192 5.633,-5.467c1.067,-2.275 1.6,-5.221 1.6,-8.842l-12.908,2.55c-3.175,0.658 -5.475,1.646 -6.904,2.958c-1.15,1.15 -1.725,2.55 -1.725,4.192c0,1.925 0.7,3.413 2.096,4.483c1.396,1.071 3.275,1.6 5.633,1.6c2.408,0 4.604,-0.488 6.575,-1.475m-19.238,5.383c-2.737,-2.388 -4.108,-5.633 -4.108,-9.742c0,-4.217 1.642,-7.537 4.929,-9.95c2.467,-1.808 6.004,-3.15 10.608,-4.029l14.963,-2.875c-0.058,-3.175 -0.904,-5.617 -2.55,-7.317c-1.808,-1.808 -4.221,-2.708 -7.237,-2.708c-2.467,0 -4.617,0.696 -6.446,2.096c-1.837,1.396 -3.004,3.271 -3.5,5.629l-8.958,0c0.767,-4.825 2.929,-8.55 6.492,-11.183c3.567,-2.625 7.729,-3.942 12.5,-3.942c2.683,0 5.217,0.396 7.604,1.192c2.379,0.792 4.396,1.954 6.042,3.492c2.192,2.029 3.575,4.413 4.15,7.154c0.575,2.737 0.863,5.892 0.863,9.454l0,25.4l-9.042,0l0,-6.738c-1.258,2.138 -2.85,3.808 -4.771,5.013c-2.738,1.754 -6.3,2.633 -10.683,2.633c-4.496,0 -8.117,-1.196 -10.854,-3.579" style="fill-rule:nonzero;"/><path d="M2666.212,1618.831l-13.154,0l-17.508,-62.729l10.196,0l14.221,51.958l13.567,-51.958l11.096,0l13.646,52.042l14.142,-52.042l10.196,0l-17.513,62.729l-13.154,0l-12.825,-49.492l-12.908,49.492Z" style="fill-rule:nonzero;"/><path d="M2759.689,1590.469c-0.217,-1.7 -0.683,-3.154 -1.396,-4.358c-1.096,-2.083 -2.671,-3.683 -4.729,-4.808c-2.05,-1.125 -4.312,-1.683 -6.779,-1.683c-2.579,0 -4.85,0.558 -6.825,1.683c-1.975,1.125 -3.533,2.725 -4.688,4.808c-0.654,1.096 -1.175,2.546 -1.558,4.358l25.975,0Zm-24.825,26.188c-3.454,-2.058 -6.138,-4.879 -8.054,-8.471c-1.925,-3.592 -2.879,-7.604 -2.879,-12.042c0,-4.167 0.862,-8.087 2.588,-11.758c1.725,-3.671 4.292,-6.633 7.692,-8.879c3.392,-2.246 7.479,-3.371 12.246,-3.371c4.054,0 7.796,0.875 11.221,2.629c3.425,1.758 6.179,4.375 8.262,7.854c2.083,3.479 3.125,7.712 3.125,12.7l0,2.467l-35.925,0c0.163,1.808 0.6,3.454 1.312,4.929c1.1,2.8 2.742,5.021 4.933,6.662c2.192,1.646 4.683,2.467 7.479,2.467c2.904,0 5.4,-0.75 7.483,-2.263c2.083,-1.504 3.588,-3.438 4.521,-5.796l9.454,0c-1.533,4.717 -4.125,8.55 -7.767,11.508c-3.646,2.963 -8.263,4.442 -13.854,4.442c-4.438,0 -8.387,-1.029 -11.837,-3.079" style="fill-rule:nonzero;"/><path d="M2808.809,1607.404c2.329,-2.963 3.496,-6.771 3.496,-11.425c0,-4.658 -1.167,-8.479 -3.496,-11.471c-2.329,-2.988 -5.438,-4.479 -9.329,-4.479c-2.521,0 -4.783,0.671 -6.779,2.013c-2.004,1.346 -3.567,3.237 -4.692,5.671c-1.121,2.442 -1.683,5.196 -1.683,8.267c0,3.067 0.562,5.808 1.683,8.217c1.125,2.412 2.688,4.292 4.692,5.633c1.996,1.346 4.258,2.013 6.779,2.013c3.892,0 7,-1.475 9.329,-4.438m-15.412,10.688c-2.138,-1.1 -4.221,-3.017 -6.25,-5.754l0,6.492l-9.042,0l0,-62.725l9.042,0l0,23.35c2.029,-2.742 4.112,-4.646 6.25,-5.717c2.137,-1.071 4.713,-1.6 7.729,-1.6c4,0 7.533,1 10.604,2.996c3.071,2.004 5.438,4.812 7.108,8.429c1.675,3.621 2.508,7.758 2.508,12.417c0,4.6 -0.833,8.712 -2.508,12.329c-1.671,3.617 -4.037,6.429 -7.108,8.425c-3.071,2.004 -6.604,3.004 -10.604,3.004c-3.017,0 -5.592,-0.55 -7.729,-1.646" style="fill-rule:nonzero;"/><path d="M2871.327,1610.116c7.129,0 12.729,-1.688 16.817,-5.054c4.079,-3.371 6.121,-9.196 6.121,-17.471c0,-7.892 -2.029,-13.662 -6.083,-17.304c-4.058,-3.646 -9.675,-5.467 -16.854,-5.467l-7.971,0l0,45.296l7.971,0Zm-17.671,8.717l0,-62.729l17.837,0c10.467,0 18.496,2.729 24.088,8.179c5.588,5.454 8.383,13.225 8.383,23.308c0,10.033 -2.808,17.742 -8.425,23.142c-5.617,5.4 -13.658,8.1 -24.129,8.1l-17.754,0Z" style="fill-rule:nonzero;"/><path d="M2946.958,1590.469c-0.217,-1.7 -0.683,-3.154 -1.396,-4.358c-1.096,-2.083 -2.671,-3.683 -4.729,-4.808c-2.05,-1.125 -4.312,-1.683 -6.779,-1.683c-2.579,0 -4.85,0.558 -6.825,1.683c-1.975,1.125 -3.533,2.725 -4.688,4.808c-0.654,1.096 -1.175,2.546 -1.558,4.358l25.975,0Zm-24.825,26.188c-3.454,-2.058 -6.138,-4.879 -8.054,-8.471c-1.925,-3.592 -2.879,-7.604 -2.879,-12.042c0,-4.167 0.862,-8.087 2.588,-11.758c1.725,-3.671 4.292,-6.633 7.692,-8.879c3.392,-2.246 7.479,-3.371 12.246,-3.371c4.054,0 7.796,0.875 11.221,2.629c3.425,1.758 6.179,4.375 8.262,7.854c2.083,3.479 3.125,7.712 3.125,12.7l0,2.467l-35.925,0c0.163,1.808 0.6,3.454 1.312,4.929c1.1,2.8 2.742,5.021 4.933,6.662c2.192,1.646 4.683,2.467 7.479,2.467c2.904,0 5.4,-0.75 7.483,-2.263c2.083,-1.504 3.588,-3.438 4.521,-5.796l9.454,0c-1.533,4.717 -4.125,8.55 -7.767,11.508c-3.646,2.963 -8.263,4.442 -13.854,4.442c-4.438,0 -8.387,-1.029 -11.837,-3.079" style="fill-rule:nonzero;"/><path d="M2984.366,1618.831l-7.321,0l-16.85,-45.792l9.783,0l10.688,31.321l10.933,-31.321l9.783,0l-17.017,45.792Z" style="fill-rule:nonzero;"/><path d="M3042.857,1617.72c-3.812,-1.396 -7.029,-3.646 -9.662,-6.738c-2.629,-3.096 -4.217,-7.029 -4.767,-11.8l9.867,0c0.929,4.383 2.958,7.521 6.083,9.413c3.121,1.892 6.737,2.837 10.85,2.837c4.004,0 7.137,-0.837 9.412,-2.508c2.275,-1.671 3.412,-4.125 3.412,-7.358c0,-2.408 -0.713,-4.342 -2.137,-5.796c-1.425,-1.454 -3.204,-2.517 -5.342,-3.204c-2.137,-0.688 -5.071,-1.442 -8.796,-2.263c-4.554,-0.987 -8.225,-1.983 -11.017,-3c-2.796,-1.013 -5.183,-2.658 -7.154,-4.933c-1.971,-2.271 -2.958,-5.412 -2.958,-9.412c0,-3.729 0.9,-6.929 2.713,-9.621c1.808,-2.683 4.325,-4.725 7.562,-6.125c3.233,-1.396 6.933,-2.096 11.1,-2.096c6.138,0 11.425,1.579 15.863,4.729c4.442,3.154 7.154,7.879 8.142,14.183l-9.7,0c-0.821,-3.562 -2.537,-6.196 -5.137,-7.896c-2.608,-1.7 -5.717,-2.546 -9.333,-2.546c-3.617,0 -6.442,0.754 -8.471,2.263c-2.025,1.508 -3.042,3.604 -3.042,6.287c0,2.083 0.675,3.75 2.017,5.013c1.342,1.263 3.004,2.221 4.975,2.879c1.975,0.658 4.713,1.367 8.221,2.133c4.767,1.046 8.621,2.117 11.55,3.208c2.929,1.096 5.438,2.892 7.525,5.383c2.079,2.5 3.121,5.908 3.121,10.237c0,5.812 -1.983,10.4 -5.958,13.771c-3.975,3.367 -9.554,5.054 -16.729,5.054c-4.333,0 -8.4,-0.696 -12.208,-2.096" style="fill-rule:nonzero;"/><path d="M3115.076,1609.786c2.083,-1.371 3.717,-3.288 4.892,-5.754c1.179,-2.467 1.767,-5.233 1.767,-8.3c0,-2.962 -0.588,-5.633 -1.767,-8.021c-1.175,-2.379 -2.808,-4.258 -4.892,-5.629c-2.083,-1.367 -4.438,-2.054 -7.071,-2.054c-2.629,0 -4.983,0.675 -7.067,2.017c-2.083,1.342 -3.717,3.204 -4.896,5.588c-1.175,2.388 -1.767,5.083 -1.767,8.1c0,3.121 0.592,5.904 1.767,8.342c1.179,2.438 2.812,4.342 4.896,5.713c2.083,1.375 4.438,2.054 7.067,2.054c2.633,0 4.987,-0.679 7.071,-2.054m-18.946,6.908c-3.483,-2.029 -6.196,-4.867 -8.142,-8.508c-1.946,-3.646 -2.917,-7.796 -2.917,-12.454c0,-4.55 0.971,-8.604 2.917,-12.167c1.946,-3.562 4.658,-6.363 8.142,-8.388c3.479,-2.029 7.438,-3.042 11.875,-3.042c4.438,0 8.4,1.013 11.883,3.042c3.479,2.025 6.192,4.825 8.133,8.388c1.946,3.562 2.925,7.617 2.925,12.167c0,4.604 -0.967,8.729 -2.879,12.371c-1.921,3.646 -4.621,6.496 -8.1,8.55c-3.483,2.054 -7.467,3.083 -11.963,3.083c-4.438,0 -8.396,-1.013 -11.875,-3.042" style="fill-rule:nonzero;"/><path d="M3150.593,1618.831c-3.562,0 -6.25,-0.821 -8.054,-2.467c-1.812,-1.646 -2.713,-4.413 -2.713,-8.304l0,-51.958l9.042,0l0,49.742c0,1.917 0.304,3.287 0.904,4.108c0.604,0.825 1.833,1.233 3.696,1.233l2.554,0l0,7.646l-5.429,0Z" style="fill-rule:nonzero;"/><path d="M3165.227,1612.253c-0.713,-1.421 -1.221,-3.067 -1.521,-4.929c-0.304,-1.862 -0.45,-4.304 -0.45,-7.317l0,-26.967l9.042,0l0,27.05c0,4.654 0.792,7.892 2.383,9.696c1.425,1.537 3.562,2.304 6.412,2.304c3.292,0 5.838,-1.042 7.646,-3.125c1.204,-1.317 2.079,-3.096 2.629,-5.342c0.55,-2.25 0.825,-5.292 0.825,-9.125l0,-21.458l9.042,0l0,45.792l-9.042,0l0,-6.496c-1.975,2.633 -3.988,4.525 -6.046,5.675c-2.054,1.15 -4.396,1.725 -7.029,1.725c-6.683,0 -11.317,-2.492 -13.892,-7.483" style="fill-rule:nonzero;"/><path d="M3226.554,1618.831c-3.562,0 -6.25,-0.821 -8.058,-2.467c-1.808,-1.646 -2.713,-4.413 -2.713,-8.304l0,-27.458l-7.071,0l0,-7.562l7.071,0l0,-16.938l9.042,0l0,16.938l9.537,0l0,7.562l-9.537,0l0,25.075c0,1.921 0.275,3.317 0.825,4.192c0.542,0.879 1.804,1.317 3.779,1.317l4.85,0l0,7.646l-7.725,0Z" style="fill-rule:nonzero;"/><path d="M3251.708,1618.829l-9.042,0l0,-45.792l9.042,0l0,45.792Zm-8.796,-53.846c-1.208,-1.096 -1.808,-2.467 -1.808,-4.113c0,-1.642 0.6,-3.008 1.808,-4.108c1.204,-1.096 2.633,-1.646 4.275,-1.646c1.7,0 3.138,0.55 4.317,1.646c1.179,1.1 1.767,2.467 1.767,4.108c0,1.646 -0.588,3.017 -1.767,4.113c-1.179,1.096 -2.617,1.646 -4.317,1.646c-1.642,0 -3.071,-0.55 -4.275,-1.646" style="fill-rule:nonzero;"/><path d="M3290.674,1609.786c2.083,-1.371 3.717,-3.288 4.892,-5.754c1.179,-2.467 1.767,-5.233 1.767,-8.3c0,-2.962 -0.588,-5.633 -1.767,-8.021c-1.175,-2.379 -2.808,-4.258 -4.892,-5.629c-2.083,-1.367 -4.438,-2.054 -7.071,-2.054c-2.629,0 -4.983,0.675 -7.067,2.017c-2.083,1.342 -3.717,3.204 -4.896,5.588c-1.175,2.388 -1.767,5.083 -1.767,8.1c0,3.121 0.592,5.904 1.767,8.342c1.179,2.438 2.812,4.342 4.896,5.713c2.083,1.375 4.438,2.054 7.067,2.054c2.633,0 4.987,-0.679 7.071,-2.054m-18.946,6.908c-3.483,-2.029 -6.196,-4.867 -8.142,-8.508c-1.946,-3.646 -2.917,-7.796 -2.917,-12.454c0,-4.55 0.971,-8.604 2.917,-12.167c1.946,-3.562 4.658,-6.363 8.142,-8.388c3.479,-2.029 7.438,-3.042 11.875,-3.042c4.438,0 8.4,1.013 11.883,3.042c3.479,2.025 6.192,4.825 8.133,8.388c1.946,3.562 2.925,7.617 2.925,12.167c0,4.604 -0.967,8.729 -2.879,12.371c-1.921,3.646 -4.621,6.496 -8.1,8.55c-3.483,2.054 -7.467,3.083 -11.963,3.083c-4.438,0 -8.396,-1.013 -11.875,-3.042" style="fill-rule:nonzero;"/><path d="M3315.588,1618.831l0,-45.792l9.042,0l0,6.412c2.025,-2.683 4.054,-4.575 6.083,-5.675c2.025,-1.092 4.329,-1.638 6.904,-1.638c6.85,0 11.479,2.463 13.892,7.396c0.933,1.808 1.508,3.658 1.729,5.55c0.217,1.892 0.329,4.15 0.329,6.779l0,26.967l-9.042,0l0,-27.046c0,-4.658 -0.8,-7.896 -2.387,-9.7c-1.479,-1.538 -3.617,-2.304 -6.413,-2.304c-3.342,0 -5.917,1.042 -7.725,3.125c-1.208,1.312 -2.071,3.1 -2.592,5.342c-0.521,2.246 -0.779,5.292 -0.779,9.125l0,21.458l-9.042,0Z" style="fill-rule:nonzero;"/><path d="M3368.812,1615.584c-3.863,-2.767 -6.179,-6.7 -6.946,-11.796l9.125,0c0.658,2.683 2.012,4.767 4.071,6.246c2.054,1.483 4.779,2.217 8.179,2.217c2.796,0 5.046,-0.529 6.742,-1.6c1.696,-1.071 2.55,-2.592 2.55,-4.562c0,-1.533 -0.525,-2.75 -1.562,-3.658c-1.046,-0.904 -2.358,-1.604 -3.946,-2.096c-1.596,-0.496 -3.7,-1.013 -6.329,-1.562c-3.617,-0.713 -6.554,-1.45 -8.796,-2.221c-2.25,-0.767 -4.167,-2.029 -5.758,-3.779c-1.588,-1.754 -2.383,-4.167 -2.383,-7.238c0,-4.329 1.617,-7.642 4.85,-9.946c3.233,-2.3 7.346,-3.45 12.333,-3.45c5.15,0 9.454,1.329 12.904,3.987c3.454,2.658 5.592,6.342 6.417,11.054l-8.471,0c-0.654,-2.575 -1.946,-4.496 -3.862,-5.758c-1.917,-1.254 -4.25,-1.883 -6.988,-1.883c-2.633,0 -4.692,0.487 -6.167,1.475c-1.479,0.987 -2.221,2.333 -2.221,4.029c0,1.371 0.496,2.454 1.479,3.25c0.988,0.792 2.204,1.408 3.658,1.846c1.45,0.442 3.492,0.904 6.125,1.4c3.729,0.708 6.771,1.462 9.125,2.258c2.354,0.796 4.371,2.112 6.046,3.946c1.671,1.837 2.504,4.371 2.504,7.604c0,4.388 -1.617,7.883 -4.846,10.483c-3.242,2.604 -7.704,3.908 -13.404,3.908c-5.754,0 -10.562,-1.383 -14.429,-4.154" style="fill-rule:nonzero;"/></g></svg>