<?xml version="1.0" encoding="UTF-8" standalone="no"?><!DOCTYPE svg PUBLIC "-//W3C//DTD SVG 1.1//EN" "http://www.w3.org/Graphics/SVG/1.1/DTD/svg11.dtd"><svg width="100%" height="100%" viewBox="0 0 4249 2550" version="1.1" xmlns="http://www.w3.org/2000/svg" xmlns:xlink="http://www.w3.org/1999/xlink" xml:space="preserve" xmlns:serif="http://www.serif.com/" style="fill-rule:evenodd;clip-rule:evenodd;stroke-linejoin:round;stroke-miterlimit:2;"><rect id="Página-5" serif:id="Página 5" x="0" y="0" width="4248.208" height="2550" style="fill:none;"/><g id="Capa-1" serif:id="Capa 1"><path d="M2363.619,1626.007c2.192,0 4.204,-0.179 6.042,-0.533c1.833,-0.354 3.413,-1.133 4.729,-2.342c1.808,-1.646 2.712,-4.004 2.712,-7.071c0,-3.892 -1.179,-6.412 -3.537,-7.567c-2.354,-1.15 -5.179,-1.725 -8.467,-1.725l-15.862,0l0,19.237l14.383,0Zm-0.246,-27.375c3.342,0 5.933,-0.783 7.771,-2.342c1.833,-1.562 2.75,-3.796 2.75,-6.7c0,-2.633 -0.792,-4.688 -2.379,-6.171c-1.979,-1.804 -5.263,-2.708 -9.867,-2.708l-12.412,0l0,17.921l14.137,0Zm-23.838,36.092l0,-62.729l24.25,0c7.233,0 12.521,1.621 15.863,4.854c2.688,2.629 4.033,6.246 4.033,10.85c0,3.729 -0.892,6.879 -2.675,9.454c-1.783,2.575 -4.233,4.142 -7.358,4.683c4.221,0.442 7.467,1.975 9.742,4.604c2.275,2.633 3.412,6.083 3.412,10.362c0,2.737 -0.45,5.175 -1.354,7.312c-0.908,2.142 -2.154,3.921 -3.742,5.346c-2.192,1.975 -4.838,3.342 -7.938,4.108c-3.096,0.771 -6.096,1.154 -9,1.154l-25.233,0Z" style="fill-rule:nonzero;"/><path d="M2396.339,1651.657l0,-7.892l4.688,0c1.808,0 3.137,-0.25 3.988,-0.738c0.846,-0.496 1.629,-1.675 2.342,-3.537l1.812,-5.013l-17.35,-45.55l9.863,0l12.254,34.612l11.262,-34.612l9.779,0l-19.071,53.029c-1.317,3.671 -2.875,6.208 -4.688,7.604c-1.808,1.396 -4.354,2.096 -7.646,2.096l-7.233,0Z" style="fill-rule:nonzero;"/><path d="M2474.602,1634.722l-9.7,0l0,-62.729l16.604,0l14.879,50.892l14.963,-50.892l16.608,0l0,62.729l-9.704,0l0,-56.071l-17.017,56.071l-9.537,0l-17.096,-55.654l0,55.654Z" style="fill-rule:nonzero;"/><path d="M2573.333,1606.36c-0.217,-1.7 -0.683,-3.154 -1.396,-4.358c-1.096,-2.083 -2.671,-3.683 -4.729,-4.808c-2.05,-1.125 -4.312,-1.683 -6.779,-1.683c-2.579,0 -4.85,0.558 -6.825,1.683c-1.975,1.125 -3.533,2.725 -4.688,4.808c-0.654,1.096 -1.175,2.546 -1.558,4.358l25.975,0Zm-24.825,26.188c-3.454,-2.058 -6.138,-4.879 -8.054,-8.471c-1.925,-3.592 -2.879,-7.604 -2.879,-12.042c0,-4.167 0.862,-8.087 2.588,-11.758c1.725,-3.671 4.292,-6.633 7.692,-8.879c3.392,-2.246 7.479,-3.371 12.246,-3.371c4.054,0 7.796,0.875 11.221,2.629c3.425,1.758 6.179,4.375 8.262,7.854c2.083,3.479 3.125,7.712 3.125,12.7l0,2.467l-35.925,0c0.163,1.808 0.6,3.454 1.312,4.929c1.1,2.8 2.742,5.021 4.933,6.662c2.192,1.646 4.683,2.467 7.479,2.467c2.904,0 5.4,-0.75 7.483,-2.263c2.083,-1.504 3.588,-3.438 4.521,-5.796l9.454,0c-1.533,4.717 -4.125,8.55 -7.767,11.508c-3.646,2.963 -8.263,4.442 -13.854,4.442c-4.438,0 -8.387,-1.029 -11.837,-3.079" style="fill-rule:nonzero;"/><path d="M2605.232,1634.722c-3.562,0 -6.25,-0.821 -8.058,-2.467c-1.808,-1.646 -2.713,-4.413 -2.713,-8.304l0,-27.458l-7.071,0l0,-7.562l7.071,0l0,-16.938l9.042,0l0,16.938l9.537,0l0,7.562l-9.537,0l0,25.075c0,1.921 0.275,3.317 0.825,4.192c0.542,0.879 1.804,1.317 3.779,1.317l4.85,0l0,7.646l-7.725,0Z" style="fill-rule:nonzero;"/><path d="M2642.8,1626.667c2.683,-1.371 4.562,-3.192 5.633,-5.467c1.067,-2.275 1.6,-5.221 1.6,-8.842l-12.908,2.55c-3.175,0.658 -5.475,1.646 -6.904,2.958c-1.15,1.15 -1.725,2.55 -1.725,4.192c0,1.925 0.7,3.413 2.096,4.483c1.396,1.071 3.275,1.6 5.633,1.6c2.408,0 4.604,-0.488 6.575,-1.475m-19.238,5.383c-2.737,-2.388 -4.108,-5.633 -4.108,-9.742c0,-4.217 1.642,-7.537 4.929,-9.95c2.467,-1.808 6.004,-3.15 10.608,-4.029l14.963,-2.875c-0.058,-3.175 -0.904,-5.617 -2.55,-7.317c-1.808,-1.808 -4.221,-2.708 -7.237,-2.708c-2.467,0 -4.617,0.696 -6.446,2.096c-1.837,1.396 -3.004,3.271 -3.5,5.629l-8.958,0c0.767,-4.825 2.929,-8.55 6.492,-11.183c3.567,-2.625 7.729,-3.942 12.5,-3.942c2.683,0 5.217,0.396 7.604,1.192c2.383,0.792 4.396,1.954 6.042,3.492c2.192,2.029 3.575,4.413 4.15,7.154c0.575,2.737 0.863,5.892 0.863,9.454l0,25.4l-9.042,0l0,-6.738c-1.258,2.138 -2.85,3.808 -4.771,5.013c-2.738,1.754 -6.3,2.633 -10.683,2.633c-4.496,0 -8.117,-1.196 -10.854,-3.579" style="fill-rule:nonzero;"/><path d="M2718.511,1634.722l-13.154,0l-17.508,-62.729l10.196,0l14.221,51.958l13.567,-51.958l11.096,0l13.646,52.042l14.142,-52.042l10.196,0l-17.513,62.729l-13.154,0l-12.825,-49.492l-12.908,49.492Z" style="fill-rule:nonzero;"/><path d="M2811.988,1606.36c-0.217,-1.7 -0.683,-3.154 -1.396,-4.358c-1.096,-2.083 -2.671,-3.683 -4.729,-4.808c-2.05,-1.125 -4.312,-1.683 -6.779,-1.683c-2.579,0 -4.85,0.558 -6.825,1.683c-1.975,1.125 -3.533,2.725 -4.688,4.808c-0.654,1.096 -1.175,2.546 -1.558,4.358l25.975,0Zm-24.825,26.188c-3.454,-2.058 -6.138,-4.879 -8.054,-8.471c-1.925,-3.592 -2.879,-7.604 -2.879,-12.042c0,-4.167 0.862,-8.087 2.588,-11.758c1.725,-3.671 4.292,-6.633 7.692,-8.879c3.392,-2.246 7.479,-3.371 12.246,-3.371c4.054,0 7.796,0.875 11.221,2.629c3.425,1.758 6.179,4.375 8.262,7.854c2.083,3.479 3.125,7.712 3.125,12.7l0,2.467l-35.925,0c0.163,1.808 0.6,3.454 1.312,4.929c1.1,2.8 2.742,5.021 4.933,6.662c2.192,1.646 4.683,2.467 7.479,2.467c2.904,0 5.4,-0.75 7.483,-2.263c2.079,-1.504 3.588,-3.438 4.521,-5.796l9.454,0c-1.533,4.717 -4.125,8.55 -7.767,11.508c-3.646,2.963 -8.263,4.442 -13.854,4.442c-4.438,0 -8.387,-1.029 -11.837,-3.079" style="fill-rule:nonzero;"/><path d="M2861.108,1623.295c2.329,-2.963 3.496,-6.771 3.496,-11.425c0,-4.658 -1.167,-8.479 -3.496,-11.471c-2.329,-2.988 -5.438,-4.479 -9.329,-4.479c-2.521,0 -4.783,0.671 -6.779,2.013c-2.004,1.346 -3.567,3.237 -4.688,5.671c-1.125,2.442 -1.688,5.196 -1.688,8.267c0,3.067 0.562,5.808 1.688,8.217c1.121,2.412 2.683,4.292 4.688,5.633c1.996,1.346 4.258,2.013 6.779,2.013c3.892,0 7,-1.475 9.329,-4.438m-15.412,10.688c-2.138,-1.1 -4.221,-3.017 -6.25,-5.754l0,6.492l-9.042,0l0,-62.725l9.042,0l0,23.35c2.029,-2.742 4.112,-4.646 6.25,-5.717c2.137,-1.071 4.713,-1.6 7.729,-1.6c4,0 7.533,1 10.604,2.996c3.071,2.004 5.438,4.812 7.108,8.429c1.675,3.621 2.508,7.758 2.508,12.417c0,4.6 -0.833,8.712 -2.508,12.329c-1.671,3.617 -4.037,6.429 -7.108,8.425c-3.071,2.004 -6.604,3.004 -10.604,3.004c-3.017,0 -5.592,-0.55 -7.729,-1.646" style="fill-rule:nonzero;"/><path d="M2923.626,1626.007c7.129,0 12.729,-1.688 16.817,-5.054c4.079,-3.371 6.121,-9.196 6.121,-17.471c0,-7.892 -2.029,-13.662 -6.083,-17.304c-4.058,-3.646 -9.675,-5.467 -16.854,-5.467l-7.971,0l0,45.296l7.971,0Zm-17.671,8.717l0,-62.729l17.837,0c10.467,0 18.496,2.729 24.088,8.179c5.588,5.454 8.388,13.225 8.388,23.308c0,10.033 -2.812,17.742 -8.429,23.142c-5.617,5.4 -13.658,8.1 -24.129,8.1l-17.754,0Z" style="fill-rule:nonzero;"/><path d="M2999.258,1606.36c-0.217,-1.7 -0.683,-3.154 -1.396,-4.358c-1.096,-2.083 -2.671,-3.683 -4.729,-4.808c-2.05,-1.125 -4.312,-1.683 -6.779,-1.683c-2.579,0 -4.85,0.558 -6.825,1.683c-1.975,1.125 -3.533,2.725 -4.688,4.808c-0.654,1.096 -1.175,2.546 -1.558,4.358l25.975,0Zm-24.825,26.188c-3.454,-2.058 -6.138,-4.879 -8.054,-8.471c-1.925,-3.592 -2.879,-7.604 -2.879,-12.042c0,-4.167 0.862,-8.087 2.588,-11.758c1.725,-3.671 4.292,-6.633 7.692,-8.879c3.392,-2.246 7.479,-3.371 12.246,-3.371c4.054,0 7.796,0.875 11.221,2.629c3.425,1.758 6.179,4.375 8.262,7.854c2.083,3.479 3.125,7.712 3.125,12.7l0,2.467l-35.925,0c0.163,1.808 0.6,3.454 1.312,4.929c1.1,2.8 2.742,5.021 4.933,6.662c2.192,1.646 4.683,2.467 7.479,2.467c2.904,0 5.4,-0.75 7.483,-2.263c2.079,-1.504 3.588,-3.438 4.521,-5.796l9.454,0c-1.533,4.717 -4.125,8.55 -7.767,11.508c-3.646,2.963 -8.263,4.442 -13.854,4.442c-4.438,0 -8.387,-1.029 -11.837,-3.079" style="fill-rule:nonzero;"/><path d="M3036.665,1634.722l-7.321,0l-16.85,-45.792l9.783,0l10.688,31.321l10.933,-31.321l9.783,0l-17.017,45.792Z" style="fill-rule:nonzero;"/><path d="M3095.156,1633.611c-3.812,-1.396 -7.029,-3.646 -9.662,-6.738c-2.629,-3.096 -4.217,-7.029 -4.767,-11.8l9.867,0c0.929,4.383 2.958,7.521 6.083,9.413c3.121,1.892 6.737,2.837 10.85,2.837c4.004,0 7.137,-0.833 9.412,-2.508c2.275,-1.671 3.412,-4.125 3.412,-7.358c0,-2.408 -0.713,-4.342 -2.137,-5.796c-1.425,-1.454 -3.204,-2.517 -5.342,-3.204c-2.137,-0.688 -5.071,-1.442 -8.796,-2.263c-4.554,-0.987 -8.225,-1.983 -11.017,-3c-2.796,-1.013 -5.183,-2.658 -7.154,-4.933c-1.971,-2.271 -2.958,-5.412 -2.958,-9.412c0,-3.729 0.9,-6.929 2.713,-9.621c1.808,-2.683 4.325,-4.725 7.562,-6.125c3.233,-1.396 6.933,-2.096 11.1,-2.096c6.138,0 11.425,1.579 15.863,4.729c4.446,3.154 7.154,7.879 8.142,14.183l-9.7,0c-0.821,-3.562 -2.537,-6.196 -5.137,-7.896c-2.608,-1.7 -5.717,-2.546 -9.333,-2.546c-3.617,0 -6.442,0.754 -8.471,2.263c-2.025,1.508 -3.042,3.604 -3.042,6.287c0,2.083 0.675,3.75 2.017,5.013c1.342,1.263 3.004,2.221 4.975,2.879c1.975,0.658 4.713,1.367 8.221,2.133c4.767,1.046 8.621,2.117 11.55,3.208c2.929,1.096 5.438,2.892 7.525,5.383c2.079,2.5 3.121,5.908 3.121,10.237c0,5.812 -1.983,10.4 -5.958,13.771c-3.975,3.367 -9.554,5.054 -16.729,5.054c-4.333,0 -8.4,-0.696 -12.208,-2.096" style="fill-rule:nonzero;"/><path d="M3167.375,1625.677c2.083,-1.371 3.717,-3.288 4.892,-5.754c1.179,-2.467 1.767,-5.233 1.767,-8.3c0,-2.962 -0.588,-5.633 -1.767,-8.021c-1.175,-2.379 -2.808,-4.258 -4.892,-5.629c-2.083,-1.367 -4.438,-2.054 -7.071,-2.054c-2.629,0 -4.983,0.675 -7.067,2.017c-2.083,1.342 -3.717,3.204 -4.896,5.588c-1.175,2.388 -1.762,5.083 -1.762,8.1c0,3.121 0.587,5.904 1.762,8.342c1.179,2.438 2.812,4.342 4.896,5.713c2.083,1.375 4.438,2.054 7.067,2.054c2.633,0 4.987,-0.679 7.071,-2.054m-18.946,6.908c-3.483,-2.029 -6.196,-4.867 -8.142,-8.508c-1.946,-3.646 -2.917,-7.796 -2.917,-12.454c0,-4.55 0.971,-8.604 2.917,-12.167c1.946,-3.562 4.658,-6.363 8.142,-8.388c3.479,-2.029 7.438,-3.042 11.875,-3.042c4.438,0 8.4,1.013 11.883,3.042c3.479,2.025 6.192,4.825 8.133,8.388c1.946,3.562 2.925,7.617 2.925,12.167c0,4.604 -0.967,8.729 -2.879,12.371c-1.921,3.646 -4.621,6.496 -8.1,8.55c-3.483,2.054 -7.467,3.083 -11.963,3.083c-4.438,0 -8.396,-1.013 -11.875,-3.042" style="fill-rule:nonzero;"/><path d="M3202.892,1634.722c-3.562,0 -6.25,-0.821 -8.054,-2.467c-1.812,-1.646 -2.713,-4.413 -2.713,-8.304l0,-51.958l9.042,0l0,49.742c0,1.917 0.304,3.287 0.904,4.108c0.604,0.825 1.833,1.233 3.696,1.233l2.554,0l0,7.646l-5.429,0Z" style="fill-rule:nonzero;"/><path d="M3217.525,1628.143c-0.713,-1.421 -1.221,-3.067 -1.521,-4.929c-0.304,-1.862 -0.45,-4.304 -0.45,-7.317l0,-26.967l9.042,0l0,27.05c0,4.654 0.792,7.892 2.383,9.696c1.425,1.537 3.562,2.304 6.412,2.304c3.292,0 5.838,-1.042 7.646,-3.125c1.204,-1.317 2.079,-3.096 2.629,-5.342c0.55,-2.25 0.825,-5.292 0.825,-9.125l0,-21.458l9.042,0l0,45.792l-9.042,0l0,-6.496c-1.975,2.633 -3.988,4.525 -6.046,5.675c-2.054,1.15 -4.396,1.725 -7.029,1.725c-6.683,0 -11.317,-2.492 -13.892,-7.483" style="fill-rule:nonzero;"/><path d="M3278.853,1634.722c-3.562,0 -6.25,-0.821 -8.058,-2.467c-1.808,-1.646 -2.713,-4.413 -2.713,-8.304l0,-27.458l-7.071,0l0,-7.562l7.071,0l0,-16.938l9.042,0l0,16.938l9.537,0l0,7.562l-9.537,0l0,25.075c0,1.921 0.275,3.317 0.825,4.192c0.542,0.879 1.804,1.317 3.779,1.317l4.85,0l0,7.646l-7.725,0Z" style="fill-rule:nonzero;"/><path d="M3304.008,1634.721l-9.042,0l0,-45.792l9.042,0l0,45.792Zm-8.796,-53.846c-1.208,-1.1 -1.808,-2.467 -1.808,-4.113c0,-1.642 0.6,-3.012 1.808,-4.108c1.204,-1.096 2.633,-1.646 4.275,-1.646c1.696,0 3.137,0.55 4.317,1.646c1.175,1.096 1.767,2.467 1.767,4.108c0,1.646 -0.592,3.013 -1.767,4.113c-1.179,1.096 -2.621,1.646 -4.317,1.646c-1.642,0 -3.071,-0.55 -4.275,-1.646" style="fill-rule:nonzero;"/><path d="M3342.973,1625.677c2.083,-1.371 3.717,-3.288 4.892,-5.754c1.179,-2.467 1.767,-5.233 1.767,-8.3c0,-2.962 -0.588,-5.633 -1.767,-8.021c-1.175,-2.379 -2.808,-4.258 -4.892,-5.629c-2.083,-1.367 -4.438,-2.054 -7.071,-2.054c-2.629,0 -4.983,0.675 -7.067,2.017c-2.083,1.342 -3.717,3.204 -4.896,5.588c-1.175,2.388 -1.762,5.083 -1.762,8.1c0,3.121 0.587,5.904 1.762,8.342c1.179,2.438 2.812,4.342 4.896,5.713c2.083,1.375 4.438,2.054 7.067,2.054c2.633,0 4.987,-0.679 7.071,-2.054m-18.946,6.908c-3.483,-2.029 -6.196,-4.867 -8.142,-8.508c-1.946,-3.646 -2.917,-7.796 -2.917,-12.454c0,-4.55 0.971,-8.604 2.917,-12.167c1.946,-3.562 4.658,-6.363 8.142,-8.388c3.479,-2.029 7.438,-3.042 11.875,-3.042c4.438,0 8.4,1.013 11.883,3.042c3.479,2.025 6.192,4.825 8.133,8.388c1.946,3.562 2.925,7.617 2.925,12.167c0,4.604 -0.967,8.729 -2.879,12.371c-1.921,3.646 -4.621,6.496 -8.1,8.55c-3.483,2.054 -7.467,3.083 -11.963,3.083c-4.438,0 -8.396,-1.013 -11.875,-3.042" style="fill-rule:nonzero;"/><path d="M3367.887,1634.722l0,-45.792l9.042,0l0,6.412c2.025,-2.683 4.054,-4.575 6.083,-5.675c2.025,-1.092 4.329,-1.638 6.904,-1.638c6.85,0 11.479,2.463 13.892,7.396c0.933,1.808 1.508,3.658 1.729,5.55c0.217,1.892 0.329,4.15 0.329,6.779l0,26.967l-9.042,0l0,-27.046c0,-4.658 -0.8,-7.896 -2.387,-9.7c-1.479,-1.538 -3.617,-2.304 -6.413,-2.304c-3.342,0 -5.917,1.042 -7.725,3.125c-1.208,1.312 -2.071,3.1 -2.592,5.342c-0.521,2.246 -0.779,5.292 -0.779,9.125l0,21.458l-9.042,0Z" style="fill-rule:nonzero;"/><path d="M3421.11,1631.475c-3.863,-2.767 -6.179,-6.7 -6.946,-11.796l9.125,0c0.658,2.683 2.012,4.767 4.071,6.246c2.054,1.483 4.779,2.217 8.179,2.217c2.796,0 5.046,-0.529 6.742,-1.6c1.696,-1.071 2.55,-2.592 2.55,-4.562c0,-1.533 -0.525,-2.75 -1.562,-3.658c-1.042,-0.904 -2.358,-1.604 -3.946,-2.096c-1.596,-0.496 -3.7,-1.013 -6.329,-1.562c-3.617,-0.713 -6.554,-1.45 -8.796,-2.221c-2.25,-0.767 -4.167,-2.029 -5.758,-3.779c-1.588,-1.754 -2.383,-4.167 -2.383,-7.238c0,-4.329 1.617,-7.642 4.85,-9.946c3.233,-2.3 7.346,-3.45 12.333,-3.45c5.15,0 9.454,1.329 12.904,3.987c3.454,2.658 5.592,6.342 6.417,11.054l-8.471,0c-0.654,-2.575 -1.946,-4.496 -3.862,-5.758c-1.917,-1.254 -4.25,-1.883 -6.988,-1.883c-2.633,0 -4.688,0.487 -6.167,1.475c-1.479,0.987 -2.221,2.333 -2.221,4.029c0,1.371 0.496,2.454 1.479,3.25c0.988,0.796 2.204,1.408 3.658,1.846c1.45,0.442 3.492,0.904 6.125,1.4c3.729,0.708 6.771,1.462 9.125,2.258c2.354,0.796 4.371,2.112 6.046,3.946c1.671,1.837 2.504,4.371 2.504,7.604c0,4.388 -1.617,7.883 -4.846,10.483c-3.242,2.604 -7.704,3.908 -13.404,3.908c-5.754,0 -10.562,-1.383 -14.429,-4.154" style="fill-rule:nonzero;"/><path d="M1840.597,1490.228l-61.25,0l-118.483,-321.125l82.429,0l66.396,202.633l67.546,-202.633l82.429,0l-119.067,321.125Z" style="fill-rule:nonzero;"/><path d="M2206.372,1401.502c15.646,-19.075 23.471,-43.688 23.471,-73.842c0,-29 -7.825,-52.75 -23.471,-71.267c-15.654,-18.5 -36.054,-27.763 -61.242,-27.763c-16.412,0 -31.108,4.208 -44.075,12.592c-12.983,8.4 -23.1,20.133 -30.342,35.208c-7.254,15.079 -10.879,32.154 -10.879,51.229c0,30.533 7.921,55.237 23.758,74.129c15.829,18.887 36.35,28.337 61.537,28.337c25.188,0 45.588,-9.533 61.242,-28.625m-146.537,73.842c-24.812,-14.112 -44.175,-33.958 -58.096,-59.533c-13.937,-25.558 -20.892,-54.954 -20.892,-88.15c0,-32.058 6.954,-60.675 20.892,-85.862c13.921,-25.188 33.283,-44.737 58.096,-58.671c24.808,-13.929 53.237,-20.896 85.296,-20.896c32.05,0 60.575,7.067 85.575,21.183c24.992,14.121 44.446,33.679 58.383,58.671c13.929,25 20.892,53.517 20.892,85.575c0,33.196 -6.862,62.592 -20.604,88.15c-13.733,25.575 -33.112,45.421 -58.096,59.533c-25,14.125 -53.721,21.179 -86.15,21.179c-32.058,0 -60.487,-7.054 -85.296,-21.179" style="fill-rule:nonzero;"/><path d="M2367.225,1490.228l0,-321.125l77.283,0l0,38.346c11.825,-16.396 25.083,-28.042 39.783,-34.913c14.679,-6.871 31.954,-10.304 51.8,-10.304l9.162,0l0,74.408l-17.75,0c-24.425,0 -43.5,6.5 -57.246,19.467c-8.779,8.788 -15.262,19.946 -19.454,33.483c-4.208,13.558 -6.296,30.825 -6.296,51.812l0,148.825l-77.283,0Z" style="fill-rule:nonzero;"/><path d="M2691.78,1490.228c-50,0 -74.992,-23.471 -74.992,-70.412l0,-188.896l-47.508,0l0,-61.817l47.508,0l0,-115.629l77.275,0l0,115.629l61.825,0l0,61.817l-61.825,0l0,165.433c0,9.925 1.621,17.371 4.867,22.321c3.237,4.962 10.396,7.442 21.467,7.442l34.917,0l0,64.112l-63.533,0Z" style="fill-rule:nonzero;"/><path d="M3035.808,1287.589c-1.529,-12.204 -5.537,-22.129 -12.017,-29.767c-7.262,-11.062 -16.804,-19.55 -28.629,-25.467c-11.829,-5.917 -25,-8.875 -39.492,-8.875c-14.513,0 -27.579,2.858 -39.208,8.588c-11.646,5.721 -21.096,14.308 -28.342,25.754c-6.871,8.4 -11.071,18.321 -12.592,29.767l160.279,0Zm-166,187.754c-24.812,-14.112 -43.992,-33.671 -57.533,-58.671c-13.546,-24.992 -20.317,-53.325 -20.317,-85.008c0,-29.379 6.008,-56.954 18.029,-82.708c12.017,-25.762 30.137,-46.654 54.379,-62.688c24.229,-16.025 53.896,-24.037 89.012,-24.037c28.996,0 55.713,6.013 80.138,18.029c24.421,12.025 44.079,30.537 58.962,55.529c14.883,25 22.321,56.008 22.321,93.017l0,16.6l-242.7,0c1.138,13.363 5.146,25.954 12.017,37.779c7.633,14.883 17.833,26.429 30.621,34.629c12.787,8.212 27.383,12.312 43.796,12.312c17.546,0 32.625,-4.488 45.217,-13.454c12.596,-8.958 21.554,-20.512 26.904,-34.633l78.996,0c-10.3,33.975 -28.438,61.533 -54.379,82.717c-25.963,21.179 -59.158,31.767 -99.6,31.767c-32.438,0 -61.067,-7.054 -85.863,-21.179" style="fill-rule:nonzero;"/><path d="M3217.841,1490.228l-88.158,0l109.904,-161.996l-110.471,-159.129l88.725,0l69.829,107.608l71.55,-107.608l89.879,0l-112.775,159.129l112.2,161.996l-89.304,0l-70.975,-109.333l-70.404,109.333Z" style="fill-rule:nonzero;"/><path d="M1395.455,1017.958l-52.746,-35.133c-6.329,-4.217 -14.883,-2.5 -19.104,3.829l-112.708,169.217c-1.962,2.946 -6.283,2.946 -8.246,0l-112.479,-168.867c-4.217,-6.333 -12.771,-8.05 -19.104,-3.829l-52.737,35.125c-6.346,4.225 -8.054,12.8 -3.812,19.133l180.912,270.238c5.458,8.154 17.446,8.154 22.9,-0.004l180.942,-270.583c4.233,-6.333 2.525,-14.9 -3.817,-19.125" style="fill-rule:nonzero;"/><path d="M1395.324,1657.132l-52.746,35.133c-6.329,4.217 -14.883,2.5 -19.104,-3.829l-112.708,-169.217c-1.963,-2.946 -6.283,-2.946 -8.246,0l-112.479,168.867c-4.217,6.333 -12.771,8.05 -19.104,3.829l-52.737,-35.125c-6.346,-4.225 -8.054,-12.8 -3.812,-19.133l180.912,-270.238c5.458,-8.154 17.446,-8.154 22.9,0.004l180.942,270.583c4.233,6.333 2.525,14.9 -3.817,19.125" style="fill-rule:nonzero;"/><path d="M1526.251,1526.173l35.133,-52.746c4.217,-6.333 2.5,-14.883 -3.829,-19.104l-169.217,-112.708c-2.946,-1.963 -2.946,-6.283 0,-8.246l168.867,-112.479c6.333,-4.217 8.05,-12.771 3.829,-19.104l-35.125,-52.738c-4.225,-6.346 -12.8,-8.054 -19.133,-3.812l-270.238,180.913c-8.154,5.458 -8.154,17.446 0.004,22.9l270.583,180.942c6.333,4.233 14.9,2.525 19.125,-3.817" style="fill:#b7b7b7;fill-rule:nonzero;"/><path d="M887.076,1526.043l-35.133,-52.746c-4.217,-6.333 -2.5,-14.883 3.829,-19.104l169.217,-112.708c2.946,-1.963 2.946,-6.283 0,-8.246l-168.867,-112.479c-6.333,-4.217 -8.05,-12.771 -3.829,-19.104l35.125,-52.738c4.225,-6.346 12.8,-8.054 19.133,-3.812l270.237,180.913c8.154,5.458 8.154,17.446 -0.004,22.9l-270.583,180.942c-6.333,4.233 -14.9,2.525 -19.125,-3.817" style="fill:#b7b7b7;fill-rule:nonzero;"/></g></svg>