<?xml version="1.0" encoding="UTF-8" standalone="no"?><!DOCTYPE svg PUBLIC "-//W3C//DTD SVG 1.1//EN" "http://www.w3.org/Graphics/SVG/1.1/DTD/svg11.dtd"><svg width="100%" height="100%" viewBox="0 0 4249 2550" version="1.1" xmlns="http://www.w3.org/2000/svg" xmlns:xlink="http://www.w3.org/1999/xlink" xml:space="preserve" xmlns:serif="http://www.serif.com/" style="fill-rule:evenodd;clip-rule:evenodd;stroke-linejoin:round;stroke-miterlimit:2;"><rect id="Página-6" serif:id="Página 6" x="0" y="0" width="4248.208" height="2550" style="fill:none;"/><g id="Capa-1" serif:id="Capa 1"><path d="M1939.84,1397.622l-47.508,0l0,-251.758l78.529,0l52.133,194.35l51.804,-194.35l79.183,0l0.004,251.758l-47.517,0l0,-216.121l-60.05,216.121l-46.525,0l-60.054,-214.8l0,214.8Z" style="fill-rule:nonzero;"/><path d="M2329.519,1280.814c-0.883,-7.038 -3.196,-12.75 -6.933,-17.158c-4.179,-6.375 -9.679,-11.267 -16.492,-14.679c-6.825,-3.412 -14.417,-5.117 -22.771,-5.117c-8.363,0 -15.9,1.65 -22.604,4.95c-6.712,3.304 -12.154,8.246 -16.329,14.846c-3.963,4.846 -6.383,10.562 -7.263,17.158l92.392,0Zm-95.692,108.225c-14.3,-8.133 -25.354,-19.408 -33.158,-33.817c-7.812,-14.408 -11.717,-30.737 -11.717,-49c0,-16.933 3.467,-32.829 10.392,-47.683c6.933,-14.842 17.379,-26.883 31.346,-36.129c13.971,-9.237 31.071,-13.858 51.312,-13.858c16.717,0 32.117,3.467 46.192,10.4c14.075,6.925 25.408,17.6 33.987,32c8.579,14.412 12.871,32.287 12.871,53.621l0,9.571l-139.9,0c0.654,7.7 2.967,14.963 6.925,21.775c4.4,8.579 10.279,15.233 17.654,19.967c7.367,4.729 15.779,7.092 25.242,7.092c10.112,0 18.808,-2.587 26.062,-7.754c7.262,-5.162 12.429,-11.825 15.508,-19.963l45.542,0c-5.946,19.579 -16.396,35.471 -31.354,47.675c-14.954,12.212 -34.096,18.317 -57.408,18.317c-18.7,0 -35.196,-4.067 -49.496,-12.213" style="fill-rule:nonzero;"/><path d="M2463.809,1397.621c-28.821,0 -43.221,-13.525 -43.221,-40.583l0,-108.887l-27.392,0l0,-35.633l27.392,0l0,-66.654l44.537,0l0,66.654l35.642,0l0,35.633l-35.642,0l0,95.354c0,5.725 0.938,10.013 2.812,12.871c1.863,2.862 5.992,4.292 12.371,4.292l20.125,0l0,36.954l-36.625,0Z" style="fill-rule:nonzero;"/><path d="M2620.206,1360.994c9.238,-4.621 15.621,-10.775 19.137,-18.475c3.513,-7.696 5.496,-18.146 5.938,-31.346l-44.212,8.904c-11.879,2.208 -20.458,5.725 -25.733,10.562c-3.963,3.958 -5.946,8.804 -5.946,14.517c0,6.825 2.479,12.046 7.429,15.671c4.95,3.633 11.492,5.45 19.629,5.45c8.796,0 16.713,-1.758 23.758,-5.283m-78.529,25.904c-11.221,-9.571 -16.825,-22.933 -16.825,-40.092c0,-18.479 7.037,-32.554 21.112,-42.233c10.121,-7.038 24.525,-12.317 43.225,-15.842l55.104,-10.225c-0.442,-11.438 -3.412,-20.125 -8.912,-26.071c-5.5,-5.938 -13.746,-8.904 -24.746,-8.904c-8.575,0 -16.117,2.529 -22.596,7.588c-6.496,5.062 -10.513,11.879 -12.05,20.458l-44.213,0c3.079,-20.458 12.092,-36.071 27.054,-46.854c14.958,-10.775 32.342,-16.171 52.137,-16.171c11.217,0 21.663,1.604 31.346,4.788c9.675,3.192 17.925,7.862 24.746,14.021c6.817,5.946 11.767,12.871 14.85,20.788c3.075,7.921 4.996,15.842 5.771,23.758c0.771,7.921 1.154,17.708 1.154,29.367l0,96.35l-44.542,0l0,-25.079c-4.617,8.138 -10.229,14.3 -16.825,18.475c-10.346,6.821 -24.312,10.233 -41.908,10.233c-18.037,0 -32.662,-4.783 -43.883,-14.354" style="fill-rule:nonzero;"/><path d="M2810.587,1397.621l-42.233,0l-56.425,-185.104l47.517,0l31.671,120.1l35.308,-120.1l38.604,0l35.308,119.442l32.662,-119.442l47.183,0l-57.408,185.104l-41.908,0l-34.646,-124.725l-35.633,124.725Z" style="fill-rule:nonzero;"/><path d="M3138.563,1280.814c-0.879,-7.038 -3.192,-12.75 -6.933,-17.158c-4.179,-6.375 -9.679,-11.267 -16.492,-14.679c-6.825,-3.412 -14.417,-5.117 -22.771,-5.117c-8.363,0 -15.9,1.65 -22.604,4.95c-6.712,3.304 -12.154,8.246 -16.329,14.846c-3.963,4.846 -6.383,10.562 -7.263,17.158l92.392,0Zm-95.692,108.225c-14.3,-8.133 -25.354,-19.408 -33.158,-33.817c-7.812,-14.408 -11.713,-30.737 -11.713,-49c0,-16.933 3.463,-32.829 10.387,-47.683c6.933,-14.842 17.379,-26.883 31.346,-36.129c13.971,-9.237 31.071,-13.858 51.312,-13.858c16.717,0 32.117,3.467 46.192,10.4c14.075,6.925 25.408,17.6 33.987,32c8.579,14.412 12.871,32.287 12.871,53.621l0,9.571l-139.9,0c0.654,7.7 2.967,14.963 6.925,21.775c4.4,8.579 10.279,15.233 17.654,19.967c7.367,4.729 15.779,7.092 25.242,7.092c10.112,0 18.808,-2.587 26.062,-7.754c7.262,-5.162 12.429,-11.825 15.508,-19.963l45.542,0c-5.946,19.579 -16.396,35.471 -31.354,47.675c-14.954,12.212 -34.096,18.317 -57.408,18.317c-18.7,0 -35.196,-4.067 -49.496,-12.213" style="fill-rule:nonzero;"/><path d="M3337.857,1346.64c8.583,-10.888 12.871,-24.8 12.871,-41.737c0,-16.938 -4.287,-30.85 -12.871,-41.738c-8.575,-10.892 -19.908,-16.333 -33.983,-16.333c-14.083,0 -25.575,5.392 -34.479,16.167c-8.912,10.779 -13.367,24.746 -13.367,41.904c0,17.158 4.454,31.129 13.367,41.904c8.904,10.779 20.396,16.167 34.479,16.167c14.075,0 25.408,-5.438 33.983,-16.333m-53.121,48.667c-8.137,-3.954 -15.838,-10.992 -23.096,-21.112l0,23.425l-44.546,0l0,-251.758l44.546,0l0,90.083c7.037,-10.117 14.679,-17.213 22.929,-21.287c8.25,-4.062 18.092,-6.104 29.529,-6.104c16.058,0 30.246,4.075 42.567,12.213c12.317,8.137 21.887,19.525 28.708,34.15c6.812,14.633 10.225,31.292 10.225,49.988c0,18.7 -3.412,35.362 -10.225,49.987c-6.821,14.633 -16.392,26.017 -28.708,34.15c-12.321,8.142 -26.508,12.213 -42.567,12.213c-11.438,0 -21.225,-1.979 -29.363,-5.946" style="fill-rule:nonzero;"/><path d="M1940.12,1617.598c21.138,0 37.983,-4.971 50.55,-14.933c12.554,-9.958 18.838,-27.646 18.838,-53.075c0,-46.1 -23.054,-69.154 -69.154,-69.154l-26.888,0l0,137.162l26.654,0Zm-47.792,19.071l0,-175.304l48.25,0c29.1,0 51.383,7.663 66.858,22.975c15.471,15.317 23.208,37.071 23.208,65.25c0,27.725 -7.779,49.171 -23.321,64.329c-15.55,15.167 -37.875,22.75 -66.971,22.75l-48.025,0Z" style="fill-rule:nonzero;"/><path d="M2155.168,1559.699c-0.312,-4.596 -1.225,-8.729 -2.758,-12.404c-3.213,-7.196 -8.154,-12.787 -14.817,-16.775c-6.663,-3.979 -14.129,-5.971 -22.4,-5.971c-8.425,0 -15.821,1.992 -22.175,5.971c-6.358,3.987 -11.3,9.579 -14.821,16.775c-1.529,3.371 -2.754,7.504 -3.671,12.404l80.642,0Zm-72.029,70.767c-9.417,-5.662 -16.738,-13.479 -21.942,-23.433c-5.208,-9.958 -7.808,-21.138 -7.808,-33.546c0,-11.792 2.446,-22.708 7.35,-32.742c4.9,-10.029 11.983,-18.112 21.254,-24.237c9.263,-6.125 20.175,-9.192 32.738,-9.192c10.875,0 20.983,2.45 30.329,7.354c9.342,4.9 16.846,12.062 22.517,21.479c5.662,9.421 8.5,20.721 8.5,33.892l0,6.892l-103.392,0c0.304,4.446 1.15,8.658 2.529,12.633c3.217,9.804 8.383,17.621 15.508,23.438c7.121,5.821 15.196,8.729 24.237,8.729c9.192,0 17.075,-2.446 23.663,-7.35c6.583,-4.9 11.337,-11.104 14.246,-18.612l20.913,0c-4.138,12.867 -11.188,23.287 -21.138,31.246c-9.963,7.967 -22.446,11.954 -37.45,11.954c-11.95,0 -22.633,-2.838 -32.054,-8.504" style="fill-rule:nonzero;"/><path d="M2252.127,1636.668l-16.088,0l-46.867,-127.054l21.596,0l33.312,93.971l33.779,-93.971l21.363,0l-47.096,127.054Z" style="fill-rule:nonzero;"/><path d="M2401.804,1625.181c-13.25,-9.192 -21.25,-23.054 -24.004,-41.588l21.362,0c2.604,12.867 8.692,22.171 18.267,27.917c9.571,5.746 20.642,8.612 33.204,8.612c12.554,0 22.242,-2.6 29.062,-7.808c6.812,-5.204 10.221,-12.946 10.221,-23.204c0,-7.808 -2.146,-13.979 -6.433,-18.496c-4.287,-4.517 -9.65,-7.892 -16.083,-10.108c-6.433,-2.217 -15.083,-4.479 -25.963,-6.779c-12.254,-2.604 -22.129,-5.246 -29.633,-7.925c-7.512,-2.679 -13.867,-7.083 -19.071,-13.213c-5.208,-6.125 -7.817,-14.55 -7.817,-25.275c0,-9.796 2.417,-18.338 7.242,-25.617c4.825,-7.271 11.562,-12.867 20.217,-16.771c8.65,-3.904 18.646,-5.862 29.983,-5.862c16.083,0 30.017,4.179 41.812,12.525c11.796,8.35 19.071,21.021 21.829,38.025l-20.45,0c-2.292,-11.179 -7.429,-19.258 -15.392,-24.237c-7.967,-4.979 -17.312,-7.467 -28.029,-7.467c-11.642,0 -20.567,2.45 -26.771,7.35c-6.196,4.904 -9.3,11.642 -9.3,20.217c0,6.742 1.95,12.062 5.858,15.971c3.904,3.904 8.804,6.858 14.704,8.846c5.892,1.992 13.975,4.058 24.238,6.2c13.017,2.758 23.512,5.629 31.479,8.621c7.958,2.983 14.738,7.85 20.329,14.583c5.592,6.742 8.392,16.088 8.392,28.033c0,15.775 -5.329,28.258 -15.971,37.45c-10.646,9.188 -25.771,13.787 -45.379,13.787c-18.688,0 -34.654,-4.6 -47.904,-13.787" style="fill-rule:nonzero;"/><path d="M2617.54,1615.298c6.508,-4.283 11.642,-10.142 15.396,-17.575c3.754,-7.425 5.633,-15.812 5.633,-25.158c0,-8.879 -1.842,-17.004 -5.517,-24.354c-3.679,-7.35 -8.771,-13.129 -15.279,-17.342c-6.512,-4.213 -13.825,-6.321 -21.946,-6.321c-7.963,0 -15.2,2.067 -21.713,6.204c-6.508,4.133 -11.6,9.875 -15.275,17.233c-3.679,7.35 -5.513,15.542 -5.513,24.579c0,9.346 1.833,17.771 5.513,25.275c3.675,7.508 8.767,13.362 15.275,17.575c6.513,4.213 13.75,6.321 21.713,6.321c7.967,0 15.204,-2.142 21.713,-6.438m-53.758,15.167c-9.425,-5.663 -16.775,-13.558 -22.058,-23.667c-5.283,-10.108 -7.925,-21.517 -7.925,-34.233c0,-12.404 2.642,-23.583 7.925,-33.542c5.283,-9.954 12.633,-17.729 22.058,-23.321c9.421,-5.588 20.1,-8.388 32.046,-8.388c11.95,0 22.671,2.8 32.167,8.388c9.5,5.592 16.925,13.367 22.287,23.321c5.362,9.958 8.042,21.138 8.042,33.542c0,12.717 -2.642,24.088 -7.925,34.121c-5.283,10.033 -12.679,17.921 -22.171,23.662c-9.5,5.746 -20.296,8.621 -32.4,8.621c-11.946,0 -22.625,-2.838 -32.046,-8.504" style="fill-rule:nonzero;"/><path d="M2715.531,1636.668c-10.262,0 -17.846,-2.3 -22.742,-6.892c-4.904,-4.596 -7.354,-12.942 -7.354,-25.046l0.004,-143.367l19.525,0l0,140.379c0,4.446 0.304,7.85 0.921,10.225c0.613,2.379 1.988,4.212 4.129,5.513c2.15,1.308 5.517,1.954 10.117,1.954l6.196,0l0,17.233l-10.796,0Z" style="fill-rule:nonzero;"/><path d="M2753.903,1618.977c-3.983,-7.504 -5.971,-18.454 -5.971,-32.858l0,-76.504l19.525,0l0,76.504c0,13.483 2.45,22.983 7.354,28.492c4.287,4.75 10.796,7.125 19.525,7.125c9.65,0 17.387,-3.137 23.208,-9.421c4.133,-4.287 7.083,-10.188 8.846,-17.692c1.754,-7.504 2.642,-17.763 2.642,-30.787l0,-54.221l19.533,0l-0.004,127.054l-19.529,0l0,-19.758c-6.129,7.812 -12.142,13.438 -18.033,16.883c-5.9,3.45 -12.446,5.175 -19.646,5.175c-17.771,0 -30.25,-6.667 -37.45,-19.992" style="fill-rule:nonzero;"/><path d="M2921.618,1636.668c-10.262,0 -17.846,-2.3 -22.742,-6.892c-4.904,-4.596 -7.354,-12.942 -7.354,-25.046l0,-77.883l-20.446,0l0,-17.233l20.446,0l0,-48.25l19.529,0l0,48.25l28.492,0l0,17.233l-28.492,0l0,73.979c0,4.442 0.304,7.925 0.921,10.45c0.613,2.533 1.988,4.521 4.138,5.979c2.142,1.458 5.508,2.179 10.108,2.179l13.092,0l0,17.233l-17.692,0Z" style="fill-rule:nonzero;"/><path d="M2983.653,1636.668l-19.529,0l0,-127.054l19.529,0l0,127.054Zm-20.217,-153.133c-2.908,-2.829 -4.367,-6.237 -4.367,-10.225c0,-3.979 1.458,-7.35 4.367,-10.108c2.908,-2.758 6.438,-4.138 10.567,-4.138c4.138,0 7.662,1.379 10.571,4.138c2.904,2.758 4.363,6.129 4.363,10.108c0,3.987 -1.458,7.396 -4.363,10.225c-2.908,2.838 -6.433,4.25 -10.571,4.25c-4.129,0 -7.658,-1.412 -10.567,-4.25" style="fill-rule:nonzero;"/><path d="M3094.736,1615.298c6.508,-4.283 11.642,-10.142 15.396,-17.575c3.754,-7.425 5.633,-15.812 5.633,-25.158c0,-8.879 -1.842,-17.004 -5.517,-24.354c-3.679,-7.35 -8.771,-13.129 -15.279,-17.342c-6.512,-4.213 -13.825,-6.321 -21.946,-6.321c-7.963,0 -15.2,2.067 -21.713,6.204c-6.508,4.133 -11.6,9.875 -15.275,17.233c-3.679,7.35 -5.513,15.542 -5.513,24.579c0,9.346 1.833,17.771 5.513,25.275c3.675,7.508 8.767,13.362 15.275,17.575c6.513,4.213 13.75,6.321 21.713,6.321c7.967,0 15.204,-2.142 21.713,-6.438m-53.758,15.167c-9.425,-5.663 -16.775,-13.558 -22.058,-23.667c-5.283,-10.108 -7.925,-21.517 -7.925,-34.233c0,-12.404 2.642,-23.583 7.925,-33.542c5.283,-9.954 12.633,-17.729 22.058,-23.321c9.421,-5.588 20.1,-8.388 32.046,-8.388c11.95,0 22.671,2.8 32.167,8.388c9.5,5.592 16.925,13.367 22.287,23.321c5.362,9.958 8.042,21.138 8.042,33.542c0,12.717 -2.642,24.088 -7.925,34.121c-5.283,10.033 -12.679,17.921 -22.171,23.662c-9.5,5.746 -20.296,8.621 -32.4,8.621c-11.946,0 -22.625,-2.838 -32.046,-8.504" style="fill-rule:nonzero;"/><path d="M3163.091,1636.668l0,-127.054l19.529,0l0,19.758c6.275,-8.117 12.367,-13.821 18.262,-17.117c5.9,-3.287 12.371,-4.942 19.417,-4.942c17.921,0 30.4,6.667 37.454,19.992c2.596,5.058 4.246,10.225 4.933,15.508c0.692,5.283 1.037,11.067 1.037,17.35l0,76.504l-19.529,0l0,-76.504c0,-13.479 -2.45,-22.983 -7.354,-28.492c-4.292,-4.746 -10.8,-7.125 -19.529,-7.125c-9.65,0 -17.387,3.142 -23.204,9.421c-4.138,4.287 -7.083,10.188 -8.846,17.692c-1.762,7.508 -2.642,17.771 -2.642,30.787l0,54.221l-19.529,0Z" style="fill-rule:nonzero;"/><path d="M3307.373,1627.48c-10.108,-7.663 -16.233,-18.229 -18.379,-31.708l20.446,0c1.688,8.117 5.633,14.475 11.838,19.067c6.204,4.596 14.738,6.896 25.613,6.896c8.883,0 15.971,-1.683 21.254,-5.058c5.283,-3.362 7.925,-8.188 7.925,-14.471c0,-4.9 -1.571,-8.846 -4.708,-11.833c-3.142,-2.983 -7.121,-5.246 -11.946,-6.779c-4.825,-1.525 -11.225,-3.062 -19.183,-4.592c-9.958,-1.992 -17.962,-4.021 -24.012,-6.088c-6.05,-2.071 -11.221,-5.4 -15.508,-9.996c-4.287,-4.596 -6.429,-10.95 -6.429,-19.067c0,-11.487 4.325,-20.45 12.983,-26.888c8.65,-6.429 19.717,-9.65 33.196,-9.65c13.783,0 25.271,3.604 34.463,10.804c9.188,7.2 14.854,17.075 17,29.638l-18.146,0c-1.842,-7.817 -5.675,-13.629 -11.488,-17.462c-5.825,-3.829 -13.1,-5.746 -21.829,-5.746c-8.425,0 -14.975,1.575 -19.642,4.708c-4.679,3.142 -7.008,7.471 -7.008,12.983c0,4.287 1.45,7.662 4.367,10.108c2.904,2.454 6.504,4.333 10.796,5.629c4.283,1.3 10.338,2.721 18.15,4.254c10.262,1.987 18.608,4.1 25.042,6.312c6.438,2.229 11.946,5.825 16.546,10.8c4.592,4.983 6.892,11.912 6.892,20.796c0,11.946 -4.292,21.404 -12.871,28.375c-8.575,6.971 -20.6,10.454 -36.067,10.454c-16.087,0 -29.179,-3.829 -39.292,-11.487" style="fill-rule:nonzero;"/><path d="M849.593,1095.234l0,443.746c0,7.717 6.4,13.971 14.292,13.971l68.842,0c7.892,0 14.292,-6.254 14.292,-13.971l0,-345.479c0,-7.717 6.4,-13.971 14.292,-13.971l174.775,0c7.892,0 14.292,6.254 14.292,13.971l0,345.479c0,7.717 6.4,13.971 14.292,13.971l68.837,0c7.896,0 14.296,-6.254 14.296,-13.971l0,-443.746c0,-7.717 -6.4,-13.971 -14.296,-13.971l-369.621,0c-7.892,0 -14.292,6.254 -14.292,13.971" style="fill-rule:nonzero;"/><path d="M1311.401,1179.528l125.588,0c7.892,0 14.292,6.254 14.292,13.971l0,345.483c0,7.713 6.4,13.971 14.292,13.971l68.838,0c7.896,0 14.296,-6.258 14.296,-13.971l0,-443.75c0,-7.717 -6.4,-13.971 -14.296,-13.971l-223.008,0c-5.554,0 -10.058,4.4 -10.058,9.833l0,78.604c0,5.429 4.504,9.829 10.058,9.829" style="fill-rule:nonzero;"/><path d="M1699.156,1689.595l0,-443.746c0,-7.717 -6.4,-13.971 -14.292,-13.971l-68.842,0c-7.892,0 -14.292,6.254 -14.292,13.971l0,345.479c0,7.717 -6.4,13.971 -14.292,13.971l-174.775,0c-7.892,0 -14.292,-6.254 -14.292,-13.971l0,-345.479c0,-7.717 -6.4,-13.971 -14.292,-13.971l-68.837,0c-7.896,0 -14.296,6.254 -14.296,13.971l0,443.746c0,7.717 6.4,13.971 14.296,13.971l369.621,0c7.892,0 14.292,-6.254 14.292,-13.971" style="fill:#1d6e47;fill-rule:nonzero;"/><path d="M1237.347,1605.301l-125.588,0c-7.892,0 -14.292,-6.254 -14.292,-13.971l0,-345.483c0,-7.713 -6.4,-13.971 -14.292,-13.971l-68.838,0c-7.896,0 -14.296,6.258 -14.296,13.971l0,443.75c0,7.717 6.4,13.971 14.296,13.971l223.008,0c5.554,0 10.058,-4.4 10.058,-9.833l0,-78.604c0,-5.429 -4.504,-9.829 -10.058,-9.829" style="fill:#1d6e47;fill-rule:nonzero;"/></g></svg>