<svg xmlns="http://www.w3.org/2000/svg" viewBox="1379.366 560.472 1489.475 1489.475"><path d="M2508.135,685.164l-107.293,-68.164c-12.875,-8.181 -30.275,-4.85 -38.861,7.429l-229.267,328.305c-3.992,5.715 -12.781,5.715 -16.773,0l-228.8,-327.626c-8.577,-12.288 -25.978,-15.618 -38.861,-7.429l-107.276,68.148c-12.908,8.197 -16.383,24.834 -7.755,37.121l368.005,524.3c11.103,15.82 35.488,15.82 46.582,-0.008l368.064,-524.971c8.611,-12.288 5.136,-28.908 -7.764,-37.105" style="fill-rule:nonzero;"/><path d="M2507.869,1925.255l-107.293,68.164c-12.875,8.181 -30.275,4.85 -38.861,-7.429l-229.267,-328.305c-3.992,-5.715 -12.781,-5.715 -16.773,0l-228.8,327.626c-8.577,12.288 -25.978,15.618 -38.861,7.429l-107.276,-68.148c-12.908,-8.197 -16.383,-24.834 -7.755,-37.121l368.005,-524.3c11.103,-15.82 35.488,-15.82 46.582,0.008l368.064,524.971c8.611,12.288 5.136,28.908 -7.764,37.105" style="fill-rule:nonzero;"/><path d="M2774.195,1671.175l71.467,-102.335c8.577,-12.288 5.085,-28.876 -7.789,-37.065l-344.214,-218.67c-5.992,-3.808 -5.992,-12.191 0,-15.998l343.502,-218.226c12.883,-8.181 16.375,-24.777 7.789,-37.065l-71.45,-102.318c-8.594,-12.312 -26.037,-15.626 -38.92,-7.397l-549.706,350.996c-16.587,10.59 -16.587,33.847 0.008,44.429l550.409,351.053c12.883,8.213 30.309,4.899 38.903,-7.405" style="fill:#b7b7b7;fill-rule:nonzero;"/><path d="M1474.013,1670.922l-71.467,-102.335c-8.577,-12.288 -5.085,-28.876 7.789,-37.065l344.214,-218.67c5.992,-3.808 5.992,-12.191 0,-15.998l-343.502,-218.226c-12.883,-8.181 -16.375,-24.777 -7.789,-37.065l71.45,-102.318c8.594,-12.312 26.037,-15.626 38.92,-7.397l549.706,350.996c16.587,10.59 16.587,33.847 -0.008,44.429l-550.409,351.053c-12.883,8.213 -30.309,4.899 -38.903,-7.405" style="fill:#b7b7b7;fill-rule:nonzero;"/></svg>
